<svg xmlns="http://www.w3.org/2000/svg" xmlns:xlink="http://www.w3.org/1999/xlink" width="30" height="22.474" viewBox="0 0 30 22.474">
  <defs>
    <clipPath id="clip-path">
      <rect id="Rectangle_2308" data-name="Rectangle 2308" width="30" height="22.474" fill="#6b56f6"/>
    </clipPath>
  </defs>
  <g id="Group_7271" data-name="Group 7271" transform="translate(0 0)">
    <g id="Group_7270" data-name="Group 7270" transform="translate(0 0)" clip-path="url(#clip-path)">
      <path id="Path_40408" data-name="Path 40408" d="M30,3.152c-.057.184-.1.373-.172.551a2.693,2.693,0,0,1-2.346,1.8,3.868,3.868,0,0,1-.439.021q-12.047,0-24.095,0A2.743,2.743,0,0,1,.312,4.011,2.755,2.755,0,0,1,2.7,0c.117-.006.234,0,.351,0h23.92a2.778,2.778,0,0,1,3,2.344c0,.017.022.031.033.047Z" transform="translate(0 0)" fill="#6b56f6"/>
      <path id="Path_40409" data-name="Path 40409" d="M30,19.517a6.368,6.368,0,0,1-.221.689,2.725,2.725,0,0,1-2.461,1.7c-.078.005-.155,0-.234,0q-12.076,0-24.154,0A2.789,2.789,0,0,1,.154,20.023,2.753,2.753,0,0,1,2.54,16.4c.155-.012.311-.019.468-.019H27.015a2.783,2.783,0,0,1,2.835,1.879c.056.164.1.332.15.5Z" transform="translate(0 0.566)" fill="#6b56f6"/>
      <path id="Path_40410" data-name="Path 40410" d="M30,11.3c-.046.168-.084.338-.138.5a2.734,2.734,0,0,1-2.582,1.9c-1.66.012-3.32,0-4.979,0q-9.71,0-19.419,0a2.756,2.756,0,1,1-.2-5.509C3.615,8.183,4.552,8.2,5.489,8.2H26.9a2.763,2.763,0,0,1,3.066,2.328A.646.646,0,0,0,30,10.6Z" transform="translate(0 0.283)" fill="#6b56f6"/>
    </g>
  </g>
</svg>