<svg id="icons_Q2" data-name="icons Q2" xmlns="http://www.w3.org/2000/svg" width="27.5" height="23.75" viewBox="0 0 27.5 23.75">
  <path id="Path_3426" data-name="Path 3426" d="M28.25,5h-20A1.25,1.25,0,0,0,7,6.25V12.5H3.25A1.25,1.25,0,0,0,2,13.75V25a3.75,3.75,0,0,0,3.75,3.75h20A3.75,3.75,0,0,0,29.5,25V6.25A1.25,1.25,0,0,0,28.25,5ZM7,25a1.25,1.25,0,0,1-2.5,0V15H7Zm5-13.25a1.125,1.125,0,0,1,1.125-1.125h2.75A1.125,1.125,0,0,1,17,11.75V17a1.125,1.125,0,0,1-1.125,1.125h-2.75A1.125,1.125,0,0,1,12,17Zm12.125,11a1.25,1.25,0,0,1-.875.375h-10A1.25,1.25,0,0,1,12,21.875a1.313,1.313,0,0,1,1.25-1.25h10a1.238,1.238,0,0,1,.875,2.125Zm0-5a1.25,1.25,0,0,1-.875.375h-2.5a1.25,1.25,0,0,1-1.25-1.25,1.312,1.312,0,0,1,1.25-1.25h2.5a1.238,1.238,0,0,1,.875,2.125Zm0-5a1.25,1.25,0,0,1-.875.375h-2.5a1.25,1.25,0,0,1-1.25-1.25,1.312,1.312,0,0,1,1.25-1.25h2.5a1.238,1.238,0,0,1,.875,2.125Z" transform="translate(-2 -5)" fill="#1d1d26"/>
</svg>
