<svg id="Layer_4" data-name="Layer 4" xmlns="http://www.w3.org/2000/svg" width="27.5" height="24.375" viewBox="0 0 27.5 24.375">
  <path id="Path_3422" data-name="Path 3422" d="M4.5,9A2.5,2.5,0,0,0,2,11.5V25.875a2.5,2.5,0,0,0,2.5,2.5H6.375V9ZM27,9H25.125V28.375H27a2.5,2.5,0,0,0,2.5-2.5V11.5A2.5,2.5,0,0,0,27,9ZM21.375,6.5a2.5,2.5,0,0,0-2.5-2.5h-6.25a2.5,2.5,0,0,0-2.5,2.5V9H8.875V28.375h13.75V9h-1.25Zm-8.75,0h6.25V9h-6.25Zm6.25,13.125H17V21.5a1.25,1.25,0,0,1-2.5,0V19.625H12.625a1.25,1.25,0,0,1,0-2.5H14.5V15.25a1.25,1.25,0,0,1,2.5,0v1.875h1.875a1.25,1.25,0,0,1,0,2.5Z" transform="translate(-2 -4)" fill="#1d1d26"/>
</svg>
