<svg id="Group_2591" data-name="Group 2591" xmlns="http://www.w3.org/2000/svg" width="22.5" height="26.25" viewBox="0 0 22.5 26.25">
  <path id="Path_3423" data-name="Path 3423" d="M19.875,3A6.875,6.875,0,1,0,26.75,9.875,6.875,6.875,0,0,0,19.875,3Z" transform="translate(-8.625 -3)" fill="#1d1d26"/>
  <path id="Path_3424" data-name="Path 3424" d="M27.25,39h-20A1.25,1.25,0,0,1,6,37.75V32.437l.563-.375A20.063,20.063,0,0,1,17.25,29a19.563,19.563,0,0,1,10.687,3.125l.563.313V37.75A1.25,1.25,0,0,1,27.25,39ZM8.5,36.5H26V33.875A17.188,17.188,0,0,0,17.25,31.5,17.75,17.75,0,0,0,8.5,33.812Z" transform="translate(-6 -12.75)" fill="#1d1d26"/>
  <path id="Path_3425" data-name="Path 3425" d="M27.25,39h-20A1.25,1.25,0,0,1,6,37.75V32.437l.563-.375A20.063,20.063,0,0,1,17.25,29a19.563,19.563,0,0,1,10.687,3.125l.563.313V37.75A1.25,1.25,0,0,1,27.25,39Z" transform="translate(-6 -12.75)" fill="#1d1d26"/>
</svg>
