<svg xmlns="http://www.w3.org/2000/svg" width="63" height="63" viewBox="0 0 63 63">
  <circle id="Ellipse_129" data-name="Ellipse 129" cx="31.5" cy="31.5" r="31.5" fill="#f5f5f5"/>
  <g id="Raporteaza_Icon" data-name="Raporteaza Icon" transform="translate(16 16)">
    <g id="invisible_box" data-name="invisible box">
      <rect id="Rectangle_2882" data-name="Rectangle 2882" width="30" height="30" fill="none"/>
    </g>
    <g id="Q3_icons" data-name="Q3 icons" transform="translate(1.262 1.235)">
      <g id="Group_2592" data-name="Group 2592">
        <path id="Path_3429" data-name="Path 3429" d="M21.75,18a3.75,3.75,0,1,0,3.75,3.75A3.75,3.75,0,0,0,21.75,18Z" transform="translate(-8.012 -7.985)" fill="#e62e2e"/>
        <path id="Path_3430" data-name="Path 3430" d="M24.53,32.375a9.812,9.812,0,0,0-5.375,0,1.125,1.125,0,0,0-.875,1.375l.75,4.875a2.5,2.5,0,0,0,2.438,2.125h.75a2.5,2.5,0,0,0,2.438-2.125l.75-4.875a1.125,1.125,0,0,0-.875-1.375Z" transform="translate(-8.105 -13.234)" fill="#e62e2e"/>
        <path id="Path_3431" data-name="Path 3431" d="M24.7,12.313a8.75,8.75,0,0,0-13.062,11.5A1.25,1.25,0,0,0,13.508,24h.062a1.25,1.25,0,0,0,.125-1.562,6.25,6.25,0,0,1,.75-8.187,6.375,6.375,0,0,1,8.625,0,6.25,6.25,0,0,1,.75,8.187,1.313,1.313,0,0,0,.187,1.625,1.188,1.188,0,0,0,1.875-.187A8.75,8.75,0,0,0,24.7,12.313Z" transform="translate(-5.02 -4.985)" fill="#e62e2e"/>
        <path id="Path_3432" data-name="Path 3432" d="M25.507,5.991A14,14,0,0,0,13.32,2.178,14.25,14.25,0,0,0,8.007,4.366,13.75,13.75,0,0,0,5.132,24.428a1.25,1.25,0,1,0,1.875-1.563,11.313,11.313,0,0,1,11.625-18,9.5,9.5,0,0,1,2.625,1,11.375,11.375,0,0,1,3.25,17,1.187,1.187,0,0,0,.063,1.688h0a1.25,1.25,0,0,0,1.813-.125,13.812,13.812,0,0,0-.875-18.438Z" transform="translate(-2.019 -1.975)" fill="#e62e2e"/>
      </g>
    </g>
  </g>
</svg>
